<svg width="57" height="57" viewBox="0 0 57 57" fill="none" xmlns="http://www.w3.org/2000/svg">
<g filter="url(#filter0_d_1078_3845)">
<path d="M29.0502 22.2842C29.0502 22.2842 27.0975 15.1142 26.6079 13.3134C26.5396 13.0688 26.3176 12.9021 26.0614 12.9021C25.7711 12.9021 25.3953 12.9021 25.0993 12.9021C24.8317 12.9021 24.5983 13.0855 24.5414 13.3412C24.1543 15.2032 22.6741 22.3176 22.6741 22.3176L13.2466 24.2462C12.9847 24.3018 12.7969 24.5297 12.7969 24.7909V25.5246C12.7969 25.7858 12.9847 26.0137 13.2466 26.0693L22.6684 27.998C22.6684 27.998 24.1258 34.1453 24.53 35.846C24.5926 36.0962 24.8204 36.274 25.0822 36.274H26.0671C26.3176 36.274 26.5396 36.1184 26.6136 35.885C27.1203 34.2509 29.0502 28.0424 29.0502 28.0424L44.2959 26.2416C44.5805 26.2083 44.7969 25.9693 44.7969 25.6913V24.6297C44.7969 24.3463 44.5805 24.1128 44.2959 24.0795L29.0502 22.2787V22.2842Z" fill="#FC5522"/>
<path d="M25.6367 36.1255L25.6564 44.9581" stroke="#FC5522" stroke-dasharray="2 2"/>
</g>
<defs>
<filter id="filter0_d_1078_3845" x="0.796875" y="0.9021" width="56.2031" height="56.0571" filterUnits="userSpaceOnUse" color-interpolation-filters="sRGB">
<feFlood flood-opacity="0" result="BackgroundImageFix"/>
<feColorMatrix in="SourceAlpha" type="matrix" values="0 0 0 0 0 0 0 0 0 0 0 0 0 0 0 0 0 0 127 0" result="hardAlpha"/>
<feOffset/>
<feGaussianBlur stdDeviation="6"/>
<feComposite in2="hardAlpha" operator="out"/>
<feColorMatrix type="matrix" values="0 0 0 0 0.0705882 0 0 0 0 0.0705882 0 0 0 0 0.0705882 0 0 0 0.8 0"/>
<feBlend mode="multiply" in2="BackgroundImageFix" result="effect1_dropShadow_1078_3845"/>
<feBlend mode="normal" in="SourceGraphic" in2="effect1_dropShadow_1078_3845" result="shape"/>
</filter>
</defs>
</svg>
