<svg width="64" height="65" viewBox="0 0 64 65" fill="none" xmlns="http://www.w3.org/2000/svg">
<g filter="url(#filter0_d_1078_3620)">
<path d="M32.0377 27.9946C32.0377 27.9946 30.5732 22.6171 30.206 21.2665C30.1547 21.0831 29.9882 20.958 29.7961 20.958C29.5783 20.958 29.2965 20.958 29.0745 20.958C28.8738 20.958 28.6988 21.0956 28.6561 21.2873C28.3657 22.6838 27.2556 28.0196 27.2556 28.0196L20.185 29.4661C19.9886 29.5078 19.8477 29.6787 19.8477 29.8746V30.4249C19.8477 30.6208 19.9886 30.7917 20.185 30.8334L27.2513 32.2799C27.2513 32.2799 28.3444 36.8904 28.6475 38.166C28.6945 38.3536 28.8653 38.4869 29.0617 38.4869H29.8003C29.9882 38.4869 30.1547 38.3702 30.2102 38.1951C30.5902 36.9696 32.0377 32.3133 32.0377 32.3133L43.4719 30.9626C43.6854 30.9376 43.8477 30.7584 43.8477 30.5499V29.7537C43.8477 29.5411 43.6854 29.3661 43.4719 29.3411L32.0377 27.9904V27.9946Z" fill="#FBE8BD" style="mix-blend-mode:hard-light"/>
<path d="M29.4766 38.3755L29.4913 44.9999" stroke="#FBE8BD" stroke-dasharray="2 2" style="mix-blend-mode:hard-light"/>
</g>
<defs>
<filter id="filter0_d_1078_3620" x="-0.152344" y="0.958008" width="64.1523" height="64.043" filterUnits="userSpaceOnUse" color-interpolation-filters="sRGB">
<feFlood flood-opacity="0" result="BackgroundImageFix"/>
<feColorMatrix in="SourceAlpha" type="matrix" values="0 0 0 0 0 0 0 0 0 0 0 0 0 0 0 0 0 0 127 0" result="hardAlpha"/>
<feOffset/>
<feGaussianBlur stdDeviation="10"/>
<feComposite in2="hardAlpha" operator="out"/>
<feColorMatrix type="matrix" values="0 0 0 0 0.988235 0 0 0 0 0.333333 0 0 0 0 0.133333 0 0 0 0.6 0"/>
<feBlend mode="color-dodge" in2="BackgroundImageFix" result="effect1_dropShadow_1078_3620"/>
<feBlend mode="normal" in="SourceGraphic" in2="effect1_dropShadow_1078_3620" result="shape"/>
</filter>
</defs>
</svg>
