<svg width="64" height="64" viewBox="0 0 64 64" fill="none" xmlns="http://www.w3.org/2000/svg">
<rect width="64" height="64" rx="20" fill="#121212"/>
<path d="M31.9513 27.8599C31.9513 27.8599 28.4731 14.9753 27.601 11.7391C27.4793 11.2996 27.0838 11 26.6275 11C26.1103 11 25.441 11 24.9137 11C24.4371 11 24.0214 11.3296 23.9199 11.7891C23.2304 15.1351 20.5938 27.9199 20.5938 27.9199L3.80111 31.3857C3.33465 31.4856 3 31.8951 3 32.3646V33.683C3 34.1524 3.33465 34.562 3.80111 34.6618L20.5837 38.1277C20.5837 38.1277 23.1797 49.1746 23.8997 52.2309C24.0112 52.6804 24.4168 53 24.8833 53H26.6376C27.0838 53 27.4793 52.7203 27.6111 52.3008C28.5136 49.3643 31.9513 38.2076 31.9513 38.2076L59.1076 34.9715C59.6147 34.9115 60 34.482 60 33.9826V32.0749C60 31.5655 59.6147 31.146 59.1076 31.0861L31.9513 27.8499V27.8599Z" fill="#FC5522"/>
</svg>
