<svg width="101" height="40" viewBox="0 0 101 40" fill="none" xmlns="http://www.w3.org/2000/svg">
<path d="M16.9791 21.33C16.8027 21.33 16.6263 21.1919 16.6263 21.0203V17.6764C16.6263 17.5048 16.8027 17.3667 16.9791 17.3667H27.8905C28.0324 17.3667 28.2088 17.5048 28.2088 17.6764V19.6768C28.2088 26.2973 22.7512 32.4326 15.0998 32.4326C7.44844 32.4326 1.28516 26.4316 1.28516 19.0199C1.28516 11.6083 7.44844 5.57373 15.1037 5.57373C19.2841 5.57373 22.686 7.29789 25.2364 9.91772C25.3438 10.0558 25.3438 10.3656 25.2019 10.47L22.3677 12.8137C22.2258 12.9518 21.9765 12.8846 21.8346 12.7092C20.4539 10.9851 17.9724 9.60797 15.1037 9.60797C10.0718 9.60797 6.06774 13.7094 6.06774 19.0199C6.06774 24.3305 10.0718 28.4655 15.1037 28.4655C20.1355 28.4655 23.2881 24.4649 23.2881 21.33H16.9829H16.9791Z" fill="white"/>
<path d="M36.4708 31.9476H32.4322C32.2213 31.9476 32.041 31.8095 32.041 31.6379V6.40242C32.041 6.26434 32.2174 6.05908 32.4322 6.05908H36.4708C36.6472 6.05908 36.8236 6.26434 36.8236 6.40242V31.6379C36.8236 31.8095 36.6472 31.9476 36.4708 31.9476Z" fill="white"/>
<path d="M49.6973 32.2945C44.489 32.2945 40.3086 28.2938 40.3086 23.3304C40.3086 18.3669 44.489 14.3662 49.6973 14.3662C54.9056 14.3662 59.0516 18.4004 59.0516 23.3304C59.0516 28.2603 54.8711 32.2945 49.6973 32.2945ZM49.6973 18.3669C47.074 18.3669 45.0912 20.5724 45.0912 23.3304C45.0912 26.0883 47.074 28.3274 49.6973 28.3274C52.3207 28.3274 54.3035 26.0509 54.3035 23.3304C54.3035 20.6098 52.2478 18.3669 49.6973 18.3669Z" fill="white"/>
<path d="M76.0614 14.6759H80.1728C80.3492 14.6759 80.4911 14.8476 80.4911 15.0566V31.2943C80.4911 36.6048 75.8849 39.5344 71.2097 39.5344C67.9498 39.5344 64.5862 38.2581 62.496 35.5338C62.3541 35.3621 62.3886 35.1531 62.5305 35.0523L65.5067 32.7423C65.6141 32.6042 65.9324 32.7087 66.0398 32.8468C67.2095 34.5709 69.4417 35.6383 71.4245 35.6383C73.6912 35.6383 75.7469 34.3283 75.7469 31.2943V30.0888C74.4697 31.0554 72.8052 31.6413 70.7495 31.6413C65.6141 31.6413 61.752 27.8161 61.752 22.9869C61.752 18.1578 65.6141 14.3699 70.7495 14.3699C72.8052 14.3699 74.4697 14.9222 75.7469 15.9224V15.0603C75.7469 14.855 75.8888 14.6796 76.0652 14.6796L76.0614 14.6759ZM71.1369 18.3631C68.5135 18.3631 66.5307 20.5015 66.5307 22.9832C66.5307 25.465 68.5135 27.637 71.1369 27.637C73.7602 27.637 75.743 25.5359 75.743 22.9832C75.743 20.4306 73.6873 18.3631 71.1369 18.3631Z" fill="white"/>
<path d="M89.3013 6.655C89.3013 6.655 87.9858 1.84079 87.6559 0.631633C87.6099 0.467427 87.4603 0.355469 87.2878 0.355469C87.0922 0.355469 86.839 0.355469 86.6396 0.355469C86.4593 0.355469 86.3021 0.478623 86.2637 0.650293C86.0029 1.9005 85.0058 6.67739 85.0058 6.67739L78.6546 7.97238C78.4781 8.0097 78.3516 8.16271 78.3516 8.33811V8.83073C78.3516 9.00613 78.4781 9.15914 78.6546 9.19646L85.0019 10.4914C85.0019 10.4914 85.9838 14.619 86.2561 15.761C86.2983 15.9289 86.4517 16.0483 86.6281 16.0483H87.2916C87.4603 16.0483 87.6099 15.9438 87.6598 15.7871C88.0011 14.6899 89.3013 10.5213 89.3013 10.5213L99.5721 9.31215C99.7639 9.28976 99.9096 9.12928 99.9096 8.94269V8.22988C99.9096 8.03956 99.7639 7.88281 99.5721 7.86042L89.3013 6.65127V6.655Z" fill="#FC5522"/>
</svg>
