<svg width="46" height="34" viewBox="0 0 46 34" fill="none" xmlns="http://www.w3.org/2000/svg">
<path d="M23.3642 13.4868C23.3642 13.4868 20.5572 3.17994 19.8534 0.591246C19.7552 0.239694 19.436 0 19.0678 0C18.6504 0 18.1103 0 17.6848 0C17.3001 0 16.9646 0.263664 16.8828 0.631195C16.3263 3.30778 14.1985 13.5347 14.1985 13.5347L0.646511 16.3072C0.270066 16.3871 0 16.7147 0 17.0902V18.1448C0 18.5204 0.270066 18.848 0.646511 18.9279L14.1904 21.7003C14.1904 21.7003 16.2854 30.537 16.8664 32.9819C16.9564 33.3415 17.2838 33.5971 17.6602 33.5971H19.076C19.4361 33.5971 19.7552 33.3734 19.8616 33.0378C20.5899 30.6888 23.3642 21.7642 23.3642 21.7642L45.2798 19.1755C45.689 19.1276 46 18.784 46 18.3845V16.8585C46 16.451 45.689 16.1154 45.2798 16.0675L23.3642 13.4788V13.4868Z" fill="#FC5522"/>
</svg>
